<?xml version="1.0" standalone="no"?>
<!DOCTYPE svg PUBLIC "-//W3C//DTD SVG 20010904//EN"
 "http://www.w3.org/TR/2001/REC-SVG-20010904/DTD/svg10.dtd">
<svg version="1.0" xmlns="http://www.w3.org/2000/svg"
 width="450.000000pt" height="112.000000pt" viewBox="0 0 450.000000 112.000000"
 preserveAspectRatio="xMidYMid meet">
<metadata>
Created by potrace 1.16, written by Peter Selinger 2001-2019
</metadata>
<g transform="translate(0.000000,112.000000) scale(0.100000,-0.100000)"
fill="#000000" stroke="none">
<path d="M3943 1095 c-105 -32 -213 -130 -263 -237 -48 -105 -61 -92 165 -164
110 -35 205 -64 211 -64 14 0 48 86 41 103 -3 7 -60 30 -128 51 -188 59 -173
50 -152 87 27 45 98 108 151 132 37 17 66 21 139 21 l93 0 10 30 c5 16 10 30
10 31 0 2 -20 8 -44 14 -59 15 -181 13 -233 -4z"/>
<path d="M4156 863 l-19 -58 29 -20 c16 -11 54 -45 85 -76 46 -47 60 -70 79
-128 56 -175 -16 -365 -166 -436 -19 -9 -61 -21 -95 -27 -78 -14 -138 2 -189
51 -112 107 -17 294 124 246 49 -17 65 -40 66 -92 0 -33 -5 -46 -26 -62 -15
-12 -36 -21 -48 -21 -58 0 -77 -62 -21 -68 75 -9 157 50 171 123 10 55 -13
120 -57 159 -42 39 -86 51 -160 44 -180 -18 -251 -266 -115 -402 65 -65 137
-89 251 -83 119 5 188 32 264 102 195 181 202 514 14 698 -51 49 -136 107
-159 107 -6 0 -18 -26 -28 -57z"/>
<path d="M2847 795 c-51 -18 -85 -50 -111 -105 -20 -42 -21 -65 -24 -357 l-4
-313 71 0 71 0 0 200 0 200 40 0 40 0 0 65 0 65 -40 0 -40 0 0 41 c0 31 6 47
29 70 16 16 39 29 50 29 19 0 21 6 21 60 l0 60 -32 0 c-18 -1 -50 -7 -71 -15z"/>
<path d="M3277 683 c-11 -10 -7 -464 4 -513 22 -96 74 -142 177 -156 l52 -7 0
67 c0 65 0 66 -27 66 -60 0 -73 31 -73 174 l0 116 45 0 45 0 0 60 0 60 -45 0
-45 0 0 70 0 70 -63 0 c-35 0 -67 -3 -70 -7z"/>
<path d="M210 551 c-81 -25 -149 -92 -176 -174 -21 -64 -15 -166 14 -223 28
-55 105 -121 156 -135 65 -18 145 -7 191 24 l40 27 3 -25 c3 -24 6 -25 68 -25
l65 0 -7 168 c-7 185 -19 229 -77 291 -65 68 -186 99 -277 72z m156 -138 c30
-19 64 -90 64 -132 0 -82 -88 -160 -163 -146 -61 12 -117 84 -117 152 0 36 36
108 63 126 46 30 108 30 153 0z"/>
<path d="M800 545 c-46 -21 -87 -61 -113 -110 -19 -36 -22 -59 -25 -227 l-4
-188 71 0 71 0 0 176 0 176 29 29 c40 39 109 41 146 4 25 -24 25 -26 25 -205
l0 -180 70 0 70 0 0 176 0 176 29 29 c23 23 38 29 71 29 95 0 110 -33 110
-250 l0 -160 65 0 65 0 0 183 c0 171 -2 185 -24 233 -41 88 -115 129 -225 122
-59 -3 -78 -9 -114 -34 l-43 -31 -45 31 c-38 27 -54 31 -119 34 -52 1 -86 -3
-110 -13z"/>
<path d="M1701 529 c-111 -55 -165 -175 -139 -306 35 -176 234 -271 372 -178
l36 24 0 -24 c0 -24 3 -25 65 -25 l65 0 0 158 c0 180 -10 225 -66 290 -81 95
-215 120 -333 61z m198 -110 c39 -25 66 -81 65 -136 -1 -149 -185 -202 -256
-73 -40 73 -6 184 66 216 33 15 95 11 125 -7z"/>
<path d="M2190 490 l0 -60 130 0 c72 0 130 -3 130 -6 0 -3 -61 -69 -135 -146
l-135 -140 0 -59 0 -59 230 0 230 0 0 60 0 59 -139 3 -140 3 134 140 134 140
1 63 0 62 -220 0 -220 0 0 -60z"/>
<path d="M3030 285 l0 -265 70 0 70 0 0 265 0 265 -70 0 -70 0 0 -265z"/>
</g>
</svg>
